<svg xmlns="http://www.w3.org/2000/svg" viewBox="0 0 32 32" width="32" height="32">
  <defs>
    <linearGradient id="leafGrad" x1="0%" y1="0%" x2="100%" y2="100%">
      <stop offset="0%" style="stop-color:#22c55e"/>
      <stop offset="100%" style="stop-color:#16a34a"/>
    </linearGradient>
    <linearGradient id="stemGrad" x1="0%" y1="0%" x2="100%" y2="100%">
      <stop offset="0%" style="stop-color:#15803d"/>
      <stop offset="100%" style="stop-color:#166534"/>
    </linearGradient>
  </defs>
  
  <!-- Background circle -->
  <circle cx="16" cy="16" r="15" fill="#0f172a"/>
  <circle cx="16" cy="16" r="14" fill="none" stroke="url(#leafGrad)" stroke-width="0.5" opacity="0.5"/>
  
  <!-- Stylized H with leaf integration -->
  <!-- Left vertical of H -->
  <rect x="7" y="7" width="4" height="18" rx="1" fill="url(#leafGrad)"/>
  
  <!-- Right vertical of H -->
  <rect x="21" y="7" width="4" height="18" rx="1" fill="url(#leafGrad)"/>
  
  <!-- Horizontal connector with organic curve -->
  <path d="M11 14 Q16 12 21 14 L21 18 Q16 16 11 18 Z" fill="url(#leafGrad)"/>
  
  <!-- Leaf accent on left stem -->
  <path d="M9 8 Q6 6 4 8 Q6 11 9 10 Z" fill="url(#stemGrad)"/>
  
  <!-- Leaf accent on right stem -->
  <path d="M23 8 Q26 6 28 8 Q26 11 23 10 Z" fill="url(#stemGrad)"/>
  
  <!-- Small leaf detail growing from H -->
  <ellipse cx="16" cy="9" rx="2.5" ry="1.5" fill="url(#stemGrad)" transform="rotate(-10 16 9)"/>
</svg>





